<?xml version="1.0" encoding="UTF-8" standalone="no"?>
<!-- Created with Inkscape (http://www.inkscape.org/) -->

<svg
   width="110.19076mm"
   height="42.132046mm"
   viewBox="0 0 110.19076 42.132046"
   version="1.1"
   id="svg1"
   xml:space="preserve"
   xmlns:inkscape="http://www.inkscape.org/namespaces/inkscape"
   xmlns:sodipodi="http://sodipodi.sourceforge.net/DTD/sodipodi-0.dtd"
   xmlns="http://www.w3.org/2000/svg"
   xmlns:svg="http://www.w3.org/2000/svg"><sodipodi:namedview
     id="namedview1"
     pagecolor="#ffffff"
     bordercolor="#000000"
     borderopacity="0.25"
     inkscape:showpageshadow="2"
     inkscape:pageopacity="0.0"
     inkscape:pagecheckerboard="0"
     inkscape:deskcolor="#d1d1d1"
     inkscape:document-units="mm" /><defs
     id="defs1" /><g
     inkscape:label="Layer 1"
     inkscape:groupmode="layer"
     id="layer1"
     transform="translate(-36.27282,-48.093997)"><path
       style="fill:#477ff3;stroke:none"
       d="m 56.647025,48.093995 c -1.09513,2.03448 -6.3111,2.18251 -8.46667,3.07027 -4.32695,1.78202 -7.83999,5.41988 -9.81878,9.62973 -1.81991,3.87185 -2.54247,8.21097 -1.80063,12.43542 0.63339,3.60694 2.16729,6.99979 4.55508,9.78958 2.09992,2.45347 4.62844,4.32018 7.5935,5.58993 16.18224,6.9299 33.08618,-9.66673 26.77293,-25.96285 -0.91114,-2.35189 -2.28465,-4.52544 -4.02918,-6.35 -1.81031,-1.89335 -3.91367,-3.48256 -6.33959,-4.49791 v 0.26458 c 3.27962,1.93447 6.1833,4.16661 8.28171,7.40833 11.37579,17.57386 -11.58693,38.42125 -28.12546,25.79606 -2.07136,-1.58124 -3.94584,-3.66595 -5.20898,-5.95231 -4.18353,-7.57241 -2.84425,-16.93383 3.36078,-23.00834 2.43578,-2.38454 5.66571,-4.1807 8.99195,-4.925 1.44135,-0.32253 3.13617,-0.82862 3.96875,0.68126 l 3.70417,-1.5875 -3.43958,-2.38125 m 28.575,3.175 -3.175,9.26042 h 1.32291 c 0.4208,-1.81266 2.02391,-3.76787 4.12248,-2.3739 1.2348,0.8202 0.69776,2.2309 2.49211,2.3739 -0.63137,-2.31308 -2.0812,-9.05213 -4.7625,-9.26042 m 10.05416,0 v 3.175 c -5.48585,-3.07233 -6.43104,6.64935 -1.5879,6.04642 0.69121,-0.086 1.25376,-0.42539 1.85249,-0.75475 l 1.05833,0.79375 v -9.26042 h -1.32292 m 36.512495,1.32292 c 1.93387,-0.32235 0.32234,-1.93385 0,0 m 9.26042,-1.32292 v 9.26042 h 1.05833 v -9.26042 h -1.05833 m -55.033325,1.5875 1.32291,3.96875 h -2.64583 l 1.32292,-3.96875 m 23.547905,5.82083 c -2.09795,0.14565 -3.66485,1.67172 -4.7625,-1.05833 h 4.7625 c -0.0313,-3.50001 -4.72665,-5.87432 -5.71651,-1.5873 -0.89722,3.88586 3.69574,6.44686 5.71651,2.64563 m 2.64584,-4.23333 -1.32292,-0.52917 v 6.61459 h 1.05833 c 0,-2.29057 -0.63325,-5.09644 2.11667,-5.82084 v -1.05833 l -1.85208,0.79375 m 2.38125,4.23333 c 0.68877,1.97709 4.62348,2.94185 5.11139,0.26071 0.40394,-2.2197 -2.48399,-1.71508 -3.32505,-2.97514 -0.72585,-1.08745 0.99623,-1.16839 1.60792,-0.8652 0.60115,0.29796 0.96059,0.55918 1.63282,0.66922 -0.50043,-2.0542 -4.07509,-3.07809 -4.74066,-0.51754 -0.59547,2.29089 2.39247,1.84197 3.2189,3.03332 0.90386,1.30298 -1.28023,1.23393 -1.9166,0.92258 -0.56103,-0.2745 -0.97276,-0.43508 -1.58872,-0.52795 m 6.35,-2.91041 c 1.65146,-0.25065 3.53902,-1.92385 3.96875,0.79375 -1.16934,0.003 -2.64889,-0.0706 -3.58943,0.76169 -2.51054,2.22171 1.66411,3.68411 3.58943,2.41331 0.17314,0.80801 0.5309,0.77675 1.32291,0.79375 0,-1.67002 0.48085,-4.31119 -0.51283,-5.76143 -1.32497,-1.93375 -4.22061,-0.96662 -4.77883,0.99893 m 7.9375,-1.32292 -1.32292,-0.52917 v 6.61459 h 1.05833 c 0,-2.29057 -0.63325,-5.09644 2.11667,-5.82084 v -1.05833 l -1.85208,0.79375 m 5.55625,1.32292 c 1.65146,-0.25065 3.53902,-1.92385 3.96875,0.79375 -1.16934,0.003 -2.6489,-0.0706 -3.58943,0.76169 -2.51053,2.22171 1.6641,3.68411 3.58943,2.41331 0.17315,0.80801 0.53091,0.77675 1.32291,0.79375 0,-1.67002 0.48085,-4.31119 -0.51283,-5.76143 -1.32497,-1.93375 -4.22061,-0.96662 -4.77883,0.99893 m -79.110415,-1.7398 c -3.33139,0.44148 -6.30331,1.39872 -8.99481,3.50715 -13.00966,10.19133 -2.50444,30.52572 12.96356,28.31573 2.06511,-0.29505 4.03796,-1.09358 5.82083,-2.15709 13.80285,-8.2336 6.63824,-31.84285 -9.78958,-29.66579 m 42.06875,-0.11229 c 0.47414,2.00081 1.3414,6.43102 3.704165,6.61459 l 2.11666,-6.61459 c -1.87782,0.32507 -2.19164,3.49015 -2.91041,5.02709 l -1.587495,-5.02709 h -1.32292 m 34.395825,0 v 6.61459 h 1.05834 v -6.61459 h -1.05834 m -38.617935,0.93727 c 2.40334,-0.41496 2.92481,4.03649 0.77089,4.59714 -2.60003,0.67677 -3.23859,-4.17107 -0.77089,-4.59714 m 15.334605,1.70857 h -3.70417 c 0.78908,-2.26499 2.86039,-2.125 3.70417,0 m 16.40417,0.79375 c -0.22501,4.0731 -4.63586,0.84764 -1.58465,0.26968 l 1.58465,-0.26968 m 13.49375,0 c -0.22501,4.0731 -4.63586,0.84764 -1.58464,0.26968 l 1.58464,-0.26968 m -87.047715,3.02515 c 1.45662,-0.40102 2.80598,0.24253 4.23313,0.24253 4.09675,0 6.97477,-0.46716 9.99782,3.08252 4.2984,5.04719 1.56082,13.33142 -4.70615,15.10126 -2.01337,0.56859 -3.32863,0.0121 -5.29167,-0.0625 -3.24117,-0.12317 -5.50856,0.82745 -7.93995,-2.41942 -2.83447,-3.78515 -1.45105,-8.30852 0.47466,-12.0904 0.71551,-1.40518 1.56776,-3.3958 3.23216,-3.85401 m -2e-4,2.00193 0.52917,1.85208 c -2.92687,-1.03174 -1.37982,3.16579 1.05833,3.43959 v 1.05833 l -2.91042,0.79375 0.79375,-1.32292 v -0.26458 l -1.85208,-1.5875 -1.05833,3.96875 h 1.5875 l -1.5875,1.05833 v 1.85209 l 2.11666,-0.52917 c -1.2065,2.56191 -0.29566,2.84402 1.85209,4.49792 l -0.79375,-1.5875 v -0.26459 l 1.32291,-0.52916 c 0.19555,0.6192 0.40474,1.96179 1.14122,2.16504 1.3493,0.37239 2.40893,-1.50273 1.87393,-2.6101 -0.45244,-0.93648 -1.92645,-0.52017 -2.74668,-0.67371 -1.22993,-0.23023 -1.76993,-1.22594 -2.12055,-2.32082 1.83765,0.20308 4.97831,3.58615 5.02708,-0.52916 h -3.175 l 0.26459,-1.05834 c 1.73148,0.41204 4.2808,-0.52812 2.63848,-2.76138 -0.86286,-1.17334 -2.65105,-0.57983 -3.43223,-2.00112 l 3.70416,0.26459 c -0.009,-2.5236 -1.74541,-3.90861 -4.23333,-2.91042 m 6.24506,0.008 c -0.99325,0.77909 -0.42423,4.13067 -0.42423,5.28412 v 6.87916 c 5e-5,0.73835 -0.24384,2.11426 0.42423,2.63828 0.78568,0.61627 2.45446,0.0572 3.27994,-0.2309 0.66058,-0.23051 1.29032,-0.54829 1.85188,-0.96728 3.23087,-2.41063 4.33178,-7.38324 1.74817,-10.70031 -1.06262,-1.36428 -4.95058,-4.41644 -6.87999,-2.90307 m 24.97577,2.63828 c 0,2.00751 -1.06194,8.86242 1.32292,9.26042 v -3.70417 c 3.09319,0.0365 2.78796,3.4936 5.55625,3.70417 l -2.11667,-3.96875 c 1.92785,-0.92129 2.63132,-3.67483 0.48017,-4.90623 -1.40003,-0.80143 -3.68266,-0.38544 -5.24267,-0.38544 m 14.81667,0 v 9.26042 l 1.05833,-0.79375 c 0.59872,0.32936 1.16129,0.66871 1.852485,0.75476 5.01207,0.62395 3.67068,-9.66451 -1.852485,-5.78184 v -3.43959 h -1.05833 m -13.49375,4.49792 v -3.43958 c 1.35398,0 6.42753,1.21848 3.1358,3.16765 -0.84791,0.50208 -2.18826,0.27193 -3.1358,0.27193 m 34.131245,-3.43958 v 1.5875 h -1.05833 v 0.79375 h 1.05833 c 0,2.31845 -0.76728,5.71836 2.38125,5.82083 v -1.05833 h -1.05833 v -4.7625 h 1.05833 v -0.79375 h -1.05833 v -1.5875 h -1.32292 m -58.737495,0.52916 2.38125,3.175 2.64583,-2.91041 h 0.26459 l 0.26458,0.79375 -2.91042,2.64583 -1.85208,-0.52917 -2.11667,-2.11666 c 1.03769,0.18 1.16003,-0.11142 1.32292,-1.05834 m 33.07312,0.9387 c -4.00423,0.87301 -2.69973,7.80071 1.58628,6.61949 3.61404,-0.99604 2.32341,-7.47189 -1.58628,-6.61949 m 19.049795,4.88214 c 0.68878,1.97709 4.62348,2.94183 5.11139,0.2607 0.40394,-2.21969 -2.48399,-1.71508 -3.32505,-2.97513 -0.72585,-1.08746 0.99625,-1.16839 1.60792,-0.86521 0.60112,0.29796 0.96061,0.55918 1.63282,0.66922 -0.50043,-2.0542 -4.07509,-3.07809 -4.74066,-0.51753 -0.59547,2.29089 2.39247,1.84197 3.2189,3.03332 0.90386,1.30296 -1.28023,1.23393 -1.9166,0.92257 -0.56102,-0.2745 -0.97276,-0.43507 -1.58872,-0.52794 m 11.37708,-3.96875 -1.05833,-0.79375 v 6.61458 h 1.05833 c 0,-0.97098 0.21862,-7.96113 2.75077,-5.17285 0.95237,1.04871 0.42423,3.84113 0.42423,5.17285 h 1.32292 c 0,-2.83871 0.0133,-9.25906 -4.49792,-5.82083 m 11.37708,3.96875 c -2.09794,0.14565 -3.66485,1.67171 -4.7625,-1.05834 h 4.7625 c -0.0313,-3.50001 -4.72665,-5.87432 -5.71651,-1.58729 -0.89723,3.88586 3.69574,6.44685 5.71651,2.64563 m 1.05834,0 c 0.68877,1.97709 4.62348,2.94184 5.11139,0.2607 0.40394,-2.21969 -2.48399,-1.71508 -3.32505,-2.97513 -0.72585,-1.08745 0.99623,-1.1684 1.60792,-0.86521 0.60112,0.29796 0.96061,0.55918 1.63282,0.66922 -0.50043,-2.0542 -4.07509,-3.07809 -4.74066,-0.51753 -0.59547,2.29089 2.39247,1.84197 3.2189,3.03332 0.90386,1.30296 -1.28022,1.23393 -1.9166,0.92257 -0.56102,-0.2745 -0.97276,-0.43507 -1.58872,-0.52794 m 6.08541,0 c 0.68878,1.97709 4.62349,2.94184 5.1114,0.2607 0.40394,-2.2197 -2.484,-1.71507 -3.32506,-2.97513 -0.72585,-1.08746 0.99624,-1.1684 1.60792,-0.86521 0.60112,0.29796 0.96061,0.55918 1.63283,0.66922 -0.50043,-2.0542 -4.07509,-3.07808 -4.74066,-0.51753 -0.59548,2.29089 2.39246,1.84197 3.2189,3.03332 0.90386,1.30296 -1.28023,1.23393 -1.9166,0.92257 -0.56103,-0.2745 -0.97276,-0.43507 -1.58873,-0.52794 m -36.77708,-4.7625 c 0,1.71832 -0.70101,5.337 1.08712,6.34265 1.12885,0.63487 3.16464,0.11499 4.46913,0.27193 v -6.61458 h -1.32292 c 0,1.07339 0.32599,7.21549 -2.36574,5.30452 -1.36161,-0.96666 -0.80926,-3.8577 -0.80926,-5.30452 h -1.05833 m -11.895015,0.92012 c 2.55332,-0.57491 3.08126,3.99786 0.77762,4.6153 -2.67021,0.71569 -3.20629,-4.06847 -0.77762,-4.6153 m 7.661885,0.0171 c 2.51109,-0.41993 2.79501,4.42739 0.26418,4.64103 -2.454055,0.20717 -2.572215,-4.25505 -0.26418,-4.64103 m 32.80813,1.70857 h -3.70417 c 0.78908,-2.26499 2.86039,-2.12499 3.70417,0 m -71.437495,0.52917 h 0.26458 c 2.17917,-1.17358 3.29773,3.94038 0.6141,1.34966 -0.25099,-0.2423 -0.41357,-0.53922 -0.6141,-0.8205 -0.35199,0.35075 -0.69726,0.72507 -1.07017,1.05466 -3.58788,3.17108 -1.54637,-3.73383 0.80559,-1.58382 m -1.05833,-0.26459 -1.85209,2.11667 1.85209,-2.11667 m 1.41111,0.44097 0.0882,0.17639 -0.0882,-0.17639 m -2.99861,2.20487 2.38125,-2.11667 -2.38125,2.11667 m 4.7625,-0.79375 v 0.52916 l 0.52916,-0.52916 h -0.52916 m 18.25625,6.35 v 1.05833 h 2.91041 v 8.20208 h 1.32292 v -8.20208 h 2.91042 v -1.05833 h -7.14375 m 20.372905,0 v 9.26041 h 1.05834 v -9.26041 h -1.05834 m 2.64584,0 v 9.26041 l 1.05833,-0.79375 c 0.59873,0.32937 1.16127,0.66871 1.85249,0.75476 5.01208,0.62395 3.67067,-9.66453 -1.85249,-5.78184 v -3.43958 h -1.05833 m -14.551875,2.52619 c -4.00424,0.87301 -2.69973,7.80071 1.58627,6.61949 3.61406,-0.99604 2.32342,-7.47188 -1.58627,-6.61949 m 6.87916,0 c -4.00422,0.87301 -2.69973,7.80072 1.58628,6.61949 3.614055,-0.99605 2.323415,-7.47188 -1.58628,-6.61949 m 17.197915,0 c -4.00424,0.87301 -2.69972,7.80072 1.58628,6.61949 3.61405,-0.99604 2.32341,-7.47188 -1.58628,-6.61949 m 4.49771,0.11964 c 1.25632,3.31462 1.53806,3.37673 -0.26458,6.61458 1.52899,-0.11777 2.07042,-1.049 2.64583,-2.38125 h 0.52917 c 0.41114,1.28657 0.99691,2.16299 2.38125,2.38125 l -1.60547,-3.43958 1.60547,-3.175 c -1.39056,0.10986 -1.85325,0.89756 -2.38125,2.11667 h -0.52917 c -0.54835,-1.14835 -1.07935,-1.91141 -2.38125,-2.11667 m -28.299185,0.92012 c 2.55332,-0.5749 3.08127,3.99786 0.77763,4.6153 -2.67022,0.7157 -3.20629,-4.06846 -0.77763,-4.6153 m 6.87917,0 c 2.553315,-0.5749 3.081265,3.99786 0.77762,4.6153 -2.67022,0.7157 -3.20628,-4.06846 -0.77762,-4.6153 m 10.307725,0.0172 c 2.51109,-0.41993 2.795,4.42738 0.26417,4.64103 -2.45406,0.20716 -2.57221,-4.25505 -0.26417,-4.64103 m 6.89019,-0.0172 c 2.55331,-0.5749 3.08127,3.99786 0.77762,4.6153 -2.67022,0.7157 -3.20629,-4.06846 -0.77762,-4.6153 z"
       id="path9" /></g></svg>
