<?xml version="1.0" encoding="UTF-8" standalone="no"?>
<!-- Created with Inkscape (http://www.inkscape.org/) -->

<svg
   version="1.1"
   id="svg1"
   width="538.95697"
   height="158.50433"
   viewBox="0 0 538.95697 158.50433"
   sodipodi:docname="qwen.png"
   inkscape:export-filename="..\OneDrive\Pictures\qwen2.svg"
   inkscape:export-xdpi="96"
   inkscape:export-ydpi="96"
   xmlns:inkscape="http://www.inkscape.org/namespaces/inkscape"
   xmlns:sodipodi="http://sodipodi.sourceforge.net/DTD/sodipodi-0.dtd"
   xmlns="http://www.w3.org/2000/svg"
   xmlns:svg="http://www.w3.org/2000/svg">
  <defs
     id="defs1" />
  <sodipodi:namedview
     id="namedview1"
     pagecolor="#ffffff"
     bordercolor="#000000"
     borderopacity="0.25"
     inkscape:showpageshadow="2"
     inkscape:pageopacity="0.0"
     inkscape:pagecheckerboard="0"
     inkscape:deskcolor="#d1d1d1" />
  <g
     inkscape:groupmode="layer"
     inkscape:label="Image"
     id="g1"
     transform="translate(-30.921593,-220.5)">
    <g
       id="g2">
      <path
         style="fill:#9c99f2"
         d="m 105.87244,377.25 c -1.24387,-1.58606 -1.2085,-1.62143 0.37756,-0.37756 0.9625,0.75485 1.75,1.54235 1.75,1.75 0,0.82304 -0.82119,0.29331 -2.12756,-1.37244 z m 2.52625,-4.5 c -0.39564,-0.6875 -0.3511,-0.9164 0.099,-0.50868 0.45007,0.40773 1.53472,0.18273 2.41032,-0.5 1.40859,-1.0983 1.43388,-1.03969 0.21957,0.50868 -1.63578,2.08577 -1.79908,2.11569 -2.72887,0.5 z M 138,372 c 0.5887,-1.1 1.29537,-2 1.57037,-2 0.275,0 0.0183,0.9 -0.57037,2 -0.5887,1.1 -1.29537,2 -1.57037,2 -0.275,0 -0.0183,-0.9 0.57037,-2 z M 52.507079,359.01145 c -0.350339,-0.56686 0.05106,-0.7345 0.940983,-0.39301 1.732417,0.66479 2.049387,1.38156 0.610955,1.38156 -0.517541,0 -1.215913,-0.44485 -1.551938,-0.98855 z m 26.02196,-2.76098 c -11.534028,-0.16082 -21.299897,-0.62046 -21.70193,-1.02143 -0.402034,-0.40097 8.805392,-0.59855 20.460945,-0.43906 11.779346,0.16119 21.618314,0.71639 22.151931,1.25 0.528008,0.52801 0.757515,0.85716 0.510015,0.73145 -0.2475,-0.12572 -9.886932,-0.36015 -21.420961,-0.52096 z M 168.45831,341.2537 c 3.82707,-0.19502 7.65207,-0.89438 8.5,-1.55414 1.35221,-1.05213 1.37301,-0.98448 0.16925,0.55044 -1.10798,1.41277 -2.74594,1.71226 -8.5,1.55414 L 161.5,341.60828 Z M 65.868428,337.81295 c 1.020386,-1.35336 3.335316,-1.74895 11.703882,-2 5.73755,-0.17212 10.43096,0.0245 10.4298,0.43705 C 88.000949,336.6625 83.365,337 77.7,337 c -6.825722,0 -10.77283,0.42164 -11.701772,1.25 -1.185414,1.05707 -1.205448,0.98961 -0.1298,-0.43705 z M 82,327 c -0.588702,-1.1 -0.845368,-2 -0.570368,-2 0.275,0 0.981666,0.9 1.570368,2 0.588702,1.1 0.845368,2 0.570368,2 -0.275,0 -0.981666,-0.9 -1.570368,-2 z m 26.27814,-0.25 c -1.75872,-2.27402 -2.45897,-4.28953 -0.78172,-2.25 0.90461,1.1 2.09643,1.87635 2.64849,1.72522 0.55206,-0.15112 0.71874,0.18638 0.3704,0.75 -0.81312,1.31566 -1.06507,1.2903 -2.23717,-0.22522 z M 78,320 c -0.588702,-1.1 -0.845368,-2 -0.570368,-2 0.275,0 0.981666,0.9 1.570368,2 0.588702,1.1 0.845368,2 0.570368,2 -0.275,0 -0.981666,-0.9 -1.570368,-2 z m 36,-1 c 0.5887,-1.1 1.29537,-2 1.57037,-2 0.275,0 0.0183,0.9 -0.57037,2 -0.5887,1.1 -1.29537,2 -1.57037,2 -0.275,0 -0.0183,-0.9 0.57037,-2 z m 51.26903,0.30701 c 0.97297,-0.25354 2.32297,-0.23687 3,0.0371 0.67703,0.27393 -0.11903,0.48137 -1.76903,0.46099 -1.65,-0.0204 -2.20394,-0.2445 -1.23097,-0.49804 z M 74,313 c -0.588702,-1.1 -0.845368,-2 -0.570368,-2 0.275,0 0.981666,0.9 1.570368,2 0.588702,1.1 0.845368,2 0.570368,2 -0.275,0 -0.981666,-0.9 -1.570368,-2 z m 85,0 c -0.5887,-1.1 -0.84537,-2 -0.57037,-2 0.275,0 0.98167,0.9 1.57037,2 0.5887,1.1 0.84537,2 0.57037,2 -0.275,0 -0.98167,-0.9 -1.57037,-2 z m -41,-1 c 0.5887,-1.1 1.29537,-2 1.57037,-2 0.275,0 0.0183,0.9 -0.57037,2 -0.5887,1.1 -1.29537,2 -1.57037,2 -0.275,0 -0.0183,-0.9 0.57037,-2 z m 63,-6 c -0.5887,-1.1 -0.84537,-2 -0.57037,-2 0.275,0 0.98167,0.9 1.57037,2 0.5887,1.1 0.84537,2 0.57037,2 -0.275,0 -0.98167,-0.9 -1.57037,-2 z M 41,304 c -0.588702,-1.1 -0.845368,-2 -0.570368,-2 0.275,0 0.981666,0.9 1.570368,2 0.588702,1.1 0.845368,2 0.570368,2 -0.275,0 -0.981666,-0.9 -1.570368,-2 z m 109,-1.37756 c 0,-0.20765 0.7875,-0.99515 1.75,-1.75 1.58606,-1.24387 1.62143,-1.2085 0.37756,0.37756 C 150.82119,302.91575 150,303.44548 150,302.62244 Z m -26.2723,-19.34417 c 1.77523,-0.22091 4.92523,-0.22454 7,-0.008 2.07476,0.21648 0.6223,0.39722 -3.2277,0.40166 -3.85,0.004 -5.54754,-0.17268 -3.7723,-0.39359 z M 49,262.35125 c 8.203823,-0.73259 19.779608,-0.79317 19.348866,-0.10125 -0.256795,0.4125 -5.502842,0.67435 -11.657883,0.5819 C 50.535942,262.73944 47.075,262.52315 49,262.35125 Z m 127.56429,-2.05812 c -0.54268,-1.4252 -0.42782,-1.54006 0.5598,-0.5598 0.68342,0.67834 0.99067,1.48524 0.68278,1.79313 -0.30789,0.30789 -0.86705,-0.24711 -1.24258,-1.23333 z M 53.942246,258.252 c 6.170182,-0.19275 11.079545,-0.82242 12,-1.53911 1.370201,-1.06686 1.392512,-1.00219 0.185309,0.53711 -1.17406,1.49704 -2.908639,1.71952 -12,1.5391 L 43.5,258.57821 Z M 172,252 c -0.5887,-1.1 -0.84537,-2 -0.57037,-2 0.275,0 0.98167,0.9 1.57037,2 0.5887,1.1 0.84537,2 0.57037,2 -0.275,0 -0.98167,-0.9 -1.57037,-2 z m -73.435707,-7.29313 c 0.375531,-0.98622 0.934692,-1.54122 1.242579,-1.23333 0.307888,0.30789 6.34e-4,1.11479 -0.682784,1.79313 -0.987616,0.98026 -1.10248,0.8654 -0.559795,-0.5598 z M 121.65225,238.25 c -0.25618,-0.4125 5.90477,-0.63342 13.69099,-0.49093 26.49187,0.4848 29.19834,0.83805 7.96578,1.03969 -11.65504,0.11068 -21.40059,-0.13626 -21.65677,-0.54876 z M 88.014286,226.58571 c 0.647619,-0.64761 1.323809,-0.64761 1.971428,0 0.647619,0.64762 0.309524,0.98572 -0.985714,0.98572 -1.295238,0 -1.633333,-0.3381 -0.985714,-0.98572 z M 112.40499,222.75 110.5,220.5 l 2.25,1.90499 c 2.11444,1.79022 2.70524,2.59501 1.90499,2.59501 -0.18976,0 -1.20226,-1.0125 -2.25,-2.25 z"
         id="path8" />
      <path
         style="fill:#a0a0a0"
         d="m 303.33906,351.25413 c 8.17105,-0.30931 8.73785,-0.46381 7.5,-2.04436 -1.20486,-1.53842 -1.16478,-1.57314 0.39993,-0.34646 3.02339,2.37023 0.90203,3.14282 -8.04801,2.93105 L 294.5,351.58873 Z M 290.40499,347.75 288.5,345.5 l 2.25,1.90499 c 1.2375,1.04774 2.25,2.06024 2.25,2.25 0,0.80025 -0.80479,0.20945 -2.59501,-1.90499 z m 15.46745,-4.5 c -1.24387,-1.58606 -1.2085,-1.62143 0.37756,-0.37756 1.66575,1.30637 2.19548,2.12756 1.37244,2.12756 -0.20765,0 -0.99515,-0.7875 -1.75,-1.75 z m -46.11078,0.0427 c 1.24391,-0.23919 3.04391,-0.23011 4,0.0202 0.95609,0.25029 -0.0617,0.446 -2.26166,0.4349 -2.2,-0.0111 -2.98225,-0.21589 -1.73834,-0.45508 z m 198.98834,0.002 c 1.2375,-0.23836 3.2625,-0.23836 4.5,0 1.2375,0.23835 0.225,0.43337 -2.25,0.43337 -2.475,0 -3.4875,-0.19502 -2.25,-0.43337 z m -208.9375,-0.97738 c 0.72187,-0.28887 1.58437,-0.25335 1.91667,0.0789 0.33229,0.33229 -0.25834,0.56864 -1.3125,0.52522 -1.16495,-0.048 -1.4019,-0.28494 -0.60417,-0.60416 z M 283,340.41669 c -1.68135,-0.93295 -1.96704,-1.39203 -0.87244,-1.40195 0.89515,-0.008 2.18775,0.66026 2.87244,1.48526 1.46028,1.75953 1.30982,1.75326 -2,-0.0833 z M 300.87244,337.25 c -1.24387,-1.58606 -1.2085,-1.62143 0.37756,-0.37756 1.66575,1.30637 2.19548,2.12756 1.37244,2.12756 -0.20765,0 -0.99515,-0.7875 -1.75,-1.75 z m 203.20651,-0.83333 c 0.048,-1.16495 0.28494,-1.4019 0.60416,-0.60417 0.28887,0.72187 0.25335,1.58438 -0.0789,1.91667 -0.33229,0.33229 -0.56864,-0.25834 -0.52522,-1.3125 z m 46,0 c 0.048,-1.16495 0.28494,-1.4019 0.60416,-0.60417 0.28887,0.72187 0.25335,1.58438 -0.0789,1.91667 -0.33229,0.33229 -0.56864,-0.25834 -0.52522,-1.3125 z m -31,-1 c 0.048,-1.16495 0.28494,-1.4019 0.60416,-0.60417 0.28887,0.72187 0.25335,1.58438 -0.0789,1.91667 -0.33229,0.33229 -0.56864,-0.25834 -0.52522,-1.3125 z m 46,-1 c 0.048,-1.16495 0.28494,-1.4019 0.60416,-0.60417 0.28887,0.72187 0.25335,1.58438 -0.0789,1.91667 -0.33229,0.33229 -0.56864,-0.25834 -0.52522,-1.3125 z M 228.87244,333.25 c -1.24387,-1.58606 -1.2085,-1.62143 0.37756,-0.37756 1.66575,1.30637 2.19548,2.12756 1.37244,2.12756 -0.20765,0 -0.99515,-0.7875 -1.75,-1.75 z m 276.20651,-4.83333 c 0.048,-1.16495 0.28494,-1.4019 0.60416,-0.60417 0.28887,0.72187 0.25335,1.58438 -0.0789,1.91667 -0.33229,0.33229 -0.56864,-0.25834 -0.52522,-1.3125 z m 46,0 c 0.048,-1.16495 0.28494,-1.4019 0.60416,-0.60417 0.28887,0.72187 0.25335,1.58438 -0.0789,1.91667 -0.33229,0.33229 -0.56864,-0.25834 -0.52522,-1.3125 z m -31,-1 c 0.048,-1.16495 0.28494,-1.4019 0.60416,-0.60417 0.28887,0.72187 0.25335,1.58438 -0.0789,1.91667 -0.33229,0.33229 -0.56864,-0.25834 -0.52522,-1.3125 z m 46,0 c 0.048,-1.16495 0.28494,-1.4019 0.60416,-0.60417 0.28887,0.72187 0.25335,1.58438 -0.0789,1.91667 -0.33229,0.33229 -0.56864,-0.25834 -0.52522,-1.3125 z M 221.87244,326.25 c -1.24387,-1.58606 -1.2085,-1.62143 0.37756,-0.37756 0.9625,0.75485 1.75,1.54235 1.75,1.75 0,0.82304 -0.82119,0.29331 -2.12756,-1.37244 z m 227.53255,-0.5 -1.90499,-2.25 2.25,1.90499 c 2.11444,1.79022 2.70524,2.59501 1.90499,2.59501 -0.18976,0 -1.20226,-1.0125 -2.25,-2.25 z m 25.31296,-1.7713 c 1.76987,-1.85687 3.38737,-3.17421 3.59443,-2.92742 0.20707,0.2468 -1.24101,1.76606 -3.21795,3.37614 L 471.5,327.35484 Z M 237.43709,319.75 234.5,316.5 l 3.25,2.93709 c 3.02946,2.73778 3.70965,3.56291 2.93709,3.56291 -0.1721,0 -1.6346,-1.4625 -3.25,-3.25 z m 30.43535,1.5 c -1.24387,-1.58606 -1.2085,-1.62143 0.37756,-0.37756 1.66575,1.30637 2.19548,2.12756 1.37244,2.12756 -0.20765,0 -0.99515,-0.7875 -1.75,-1.75 z m 238.20651,0.16667 c 0.048,-1.16495 0.28494,-1.4019 0.60416,-0.60417 0.28887,0.72187 0.25335,1.58438 -0.0789,1.91667 -0.33229,0.33229 -0.56864,-0.25834 -0.52522,-1.3125 z m 46,-1 c 0.048,-1.16495 0.28494,-1.4019 0.60416,-0.60417 0.28887,0.72187 0.25335,1.58438 -0.0789,1.91667 -0.33229,0.33229 -0.56864,-0.25834 -0.52522,-1.3125 z m -31,-1 c 0.048,-1.16495 0.28494,-1.4019 0.60416,-0.60417 0.28887,0.72187 0.25335,1.58438 -0.0789,1.91667 -0.33229,0.33229 -0.56864,-0.25834 -0.52522,-1.3125 z m 46,0 c 0.048,-1.16495 0.28494,-1.4019 0.60416,-0.60417 0.28887,0.72187 0.25335,1.58438 -0.0789,1.91667 -0.33229,0.33229 -0.56864,-0.25834 -0.52522,-1.3125 z M 287,319.68709 c 0,-0.1721 1.4625,-1.6346 3.25,-3.25 l 3.25,-2.93709 -2.93709,3.25 C 287.82513,319.77946 287,320.45965 287,319.68709 Z M 262.87244,315.25 c -1.24387,-1.58606 -1.2085,-1.62143 0.37756,-0.37756 1.66575,1.30637 2.19548,2.12756 1.37244,2.12756 -0.20765,0 -0.99515,-0.7875 -1.75,-1.75 z m 19,0 c -1.24387,-1.58606 -1.2085,-1.62143 0.37756,-0.37756 1.66575,1.30637 2.19548,2.12756 1.37244,2.12756 -0.20765,0 -0.99515,-0.7875 -1.75,-1.75 z m 147.37974,-2.75 c 0.0111,-2.2 0.21589,-2.98225 0.45508,-1.73834 0.23919,1.24391 0.23011,3.04391 -0.0202,4 -0.25029,0.95609 -0.446,-0.0617 -0.4349,-2.26166 z m 77.82677,0.91667 c 0.048,-1.16495 0.28494,-1.4019 0.60416,-0.60417 0.28887,0.72187 0.25335,1.58438 -0.0789,1.91667 -0.33229,0.33229 -0.56864,-0.25834 -0.52522,-1.3125 z m 46,0 c 0.048,-1.16495 0.28494,-1.4019 0.60416,-0.60417 0.28887,0.72187 0.25335,1.58438 -0.0789,1.91667 -0.33229,0.33229 -0.56864,-0.25834 -0.52522,-1.3125 z m 15,-1 c 0.048,-1.16495 0.28494,-1.4019 0.60416,-0.60417 0.28887,0.72187 0.25335,1.58438 -0.0789,1.91667 -0.33229,0.33229 -0.56864,-0.25834 -0.52522,-1.3125 z m -46,-1 c 0.048,-1.16495 0.28494,-1.4019 0.60416,-0.60417 0.28887,0.72187 0.25335,1.58438 -0.0789,1.91667 -0.33229,0.33229 -0.56864,-0.25834 -0.52522,-1.3125 z M 265.25,311.26496 c 2.6125,-0.206 6.8875,-0.206 9.5,0 2.6125,0.206 0.475,0.37454 -4.75,0.37454 -5.225,0 -7.3625,-0.16854 -4.75,-0.37454 z M 493.15789,309 c 0,-1.375 0.22698,-1.9375 0.50439,-1.25 0.27741,0.6875 0.27741,1.8125 0,2.5 -0.27741,0.6875 -0.50439,0.125 -0.50439,-1.25 z m 14.92106,-2.58333 c 0.048,-1.16495 0.28494,-1.4019 0.60416,-0.60417 0.28887,0.72187 0.25335,1.58438 -0.0789,1.91667 -0.33229,0.33229 -0.56864,-0.25834 -0.52522,-1.3125 z m 46,-1 c 0.048,-1.16495 0.28494,-1.4019 0.60416,-0.60417 0.28887,0.72187 0.25335,1.58438 -0.0789,1.91667 -0.33229,0.33229 -0.56864,-0.25834 -0.52522,-1.3125 z m 15,-1 c 0.048,-1.16495 0.28494,-1.4019 0.60416,-0.60417 0.28887,0.72187 0.25335,1.58438 -0.0789,1.91667 -0.33229,0.33229 -0.56864,-0.25834 -0.52522,-1.3125 z M 371.54271,303.0691 c -0.31644,-0.512 -0.11799,-1.21356 0.44098,-1.55902 0.55897,-0.34546 1.01631,0.0734 1.01631,0.9309 0,1.75653 -0.60006,2.01516 -1.45729,0.62812 z M 493.19495,300.5 c 0.0204,-1.65 0.2445,-2.20394 0.49804,-1.23097 0.25354,0.97297 0.23687,2.32297 -0.0371,3 -0.27393,0.67703 -0.48137,-0.11903 -0.46099,-1.76903 z M 228.29966,295 c 0,-3.025 0.18747,-4.2625 0.41659,-2.75 0.22913,1.5125 0.22913,3.9875 0,5.5 -0.22912,1.5125 -0.41659,0.275 -0.41659,-2.75 z m 87.85823,3 c 0,-1.375 0.22698,-1.9375 0.50439,-1.25 0.27741,0.6875 0.27741,1.8125 0,2.5 -0.27741,0.6875 -0.50439,0.125 -0.50439,-1.25 z m 192.92106,0.41667 c 0.048,-1.16495 0.28494,-1.4019 0.60416,-0.60417 0.28887,0.72187 0.25335,1.58438 -0.0789,1.91667 -0.33229,0.33229 -0.56864,-0.25834 -0.52522,-1.3125 z M 473.87244,291.25 c -1.24387,-1.58606 -1.2085,-1.62143 0.37756,-0.37756 1.66575,1.30637 2.19548,2.12756 1.37244,2.12756 -0.20765,0 -0.99515,-0.7875 -1.75,-1.75 z m 36.20651,0.16667 c 0.048,-1.16495 0.28494,-1.4019 0.60416,-0.60417 0.28887,0.72187 0.25335,1.58438 -0.0789,1.91667 -0.33229,0.33229 -0.56864,-0.25834 -0.52522,-1.3125 z M 550.87244,289.25 c -1.24387,-1.58606 -1.2085,-1.62143 0.37756,-0.37756 1.66575,1.30637 2.19548,2.12756 1.37244,2.12756 -0.20765,0 -0.99515,-0.7875 -1.75,-1.75 z M 440,284.5 c 1.29175,-1.375 2.57363,-2.5 2.84863,-2.5 0.275,0 -0.55688,1.125 -1.84863,2.5 -1.29175,1.375 -2.57363,2.5 -2.84863,2.5 -0.275,0 0.55688,-1.125 1.84863,-2.5 z m 100.76166,1.79274 c 1.24391,-0.23919 3.04391,-0.23011 4,0.0202 0.95609,0.25029 -0.0617,0.446 -2.26166,0.4349 -2.2,-0.0111 -2.98225,-0.21589 -1.73834,-0.45508 z m -327.68271,-2.87607 c 0.048,-1.16495 0.28494,-1.4019 0.60416,-0.60417 0.28887,0.72187 0.25335,1.58438 -0.0789,1.91667 -0.3323,0.33229 -0.56864,-0.25834 -0.52522,-1.3125 z M 484.92431,282.25 482.5,279.5 l 2.75,2.42431 c 2.57029,2.26589 3.20859,3.07569 2.42431,3.07569 -0.17912,0 -1.41662,-1.2375 -2.75,-2.75 z m 26.15464,1.16667 c 0.048,-1.16495 0.28494,-1.4019 0.60416,-0.60417 0.28887,0.72187 0.25335,1.58438 -0.0789,1.91667 -0.33229,0.33229 -0.56864,-0.25834 -0.52522,-1.3125 z m -195,-3 c 0.048,-1.16495 0.28494,-1.4019 0.60416,-0.60417 0.28887,0.72187 0.25335,1.58438 -0.0789,1.91667 -0.33229,0.33229 -0.56864,-0.25834 -0.52522,-1.3125 z m 210,-2 c 0.048,-1.16495 0.28494,-1.4019 0.60416,-0.60417 0.28887,0.72187 0.25335,1.58438 -0.0789,1.91667 -0.33229,0.33229 -0.56864,-0.25834 -0.52522,-1.3125 z M 238,267.68709 c 0,-0.1721 1.4625,-1.6346 3.25,-3.25 l 3.25,-2.93709 -2.93709,3.25 C 238.82513,267.77946 238,268.45965 238,267.68709 Z M 291.40499,263.75 289.5,261.5 l 2.25,1.90499 c 2.11444,1.79022 2.70524,2.59501 1.90499,2.59501 -0.18976,0 -1.20226,-1.0125 -2.25,-2.25 z M 223,261.62244 c 0,-0.20765 0.7875,-0.99515 1.75,-1.75 1.58606,-1.24387 1.62143,-1.2085 0.37756,0.37756 C 223.82119,261.91575 223,262.44548 223,261.62244 Z m 39.75,-7.34584 c 1.7875,-0.22182 4.7125,-0.22182 6.5,0 1.7875,0.22183 0.325,0.40333 -3.25,0.40333 -3.575,0 -5.0375,-0.1815 -3.25,-0.40333 z m 37.12244,-4.0266 c -1.24387,-1.58606 -1.2085,-1.62143 0.37756,-0.37756 1.66575,1.30637 2.19548,2.12756 1.37244,2.12756 -0.20765,0 -0.99515,-0.7875 -1.75,-1.75 z M 260.75,240.33772 c 0.6875,-0.27741 1.8125,-0.27741 2.5,0 0.6875,0.27741 0.125,0.50439 -1.25,0.50439 -1.375,0 -1.9375,-0.22698 -1.25,-0.50439 z m 13,0 c 0.6875,-0.27741 1.8125,-0.27741 2.5,0 0.6875,0.27741 0.125,0.50439 -1.25,0.50439 -1.375,0 -1.9375,-0.22698 -1.25,-0.50439 z"
         id="path7" />
      <path
         style="fill:#726ded"
         d="m 65.304351,359.25324 c 5.942393,-0.17711 15.392393,-0.17644 21,10e-4 5.607607,0.17792 0.745649,0.32282 -10.804351,0.322 -11.55,-8.2e-4 -16.138042,-0.14638 -10.195649,-0.32348 z M 157.25,341.31067 c 0.9625,-0.25152 2.5375,-0.25152 3.5,0 0.9625,0.25153 0.175,0.45733 -1.75,0.45733 -1.925,0 -2.7125,-0.2058 -1.75,-0.45733 z m -107.171053,-21.894 c 0.04798,-1.16495 0.284941,-1.4019 0.604167,-0.60417 0.288871,0.72187 0.253344,1.58438 -0.07895,1.91667 -0.332292,0.33229 -0.568641,-0.25834 -0.52522,-1.3125 z M 172.77643,319.2665 c 2.35204,-0.21124 5.95204,-0.20827 8,0.007 2.04796,0.21487 0.12357,0.38771 -4.27643,0.38408 -4.4,-0.004 -6.07561,-0.17944 -3.72357,-0.39069 z M 86.75,284.29427 c 1.2375,-0.23836 3.2625,-0.23836 4.5,0 1.2375,0.23835 0.225,0.43337 -2.25,0.43337 -2.475,0 -3.4875,-0.19502 -2.25,-0.43337 z M 131.5,263 l -42,-0.53299 41.69098,-0.23351 c 26.97003,-0.15105 41.90921,0.1196 42.30902,0.7665 0.33992,0.55 0.47898,0.89492 0.30902,0.7665 C 173.63906,263.63807 154.6,263.29315 131.5,263 Z M 91.776433,221.2665 c 2.352038,-0.21124 5.952038,-0.20827 8,0.007 2.047957,0.21487 0.123567,0.38771 -4.276433,0.38408 -4.4,-0.004 -6.075605,-0.17944 -3.723567,-0.39069 z"
         id="path6" />
      <path
         style="fill:#605bec"
         d="m 108.02193,378.03471 c -0.81294,-0.51406 -3.76268,-4.89467 -6.55497,-9.73468 L 96.390061,359.5 l -21.490233,-0.26893 -21.490233,-0.26893 -6.172049,-10.69353 -6.172048,-10.69353 3.608739,-6.45303 c 1.984806,-3.54916 4.258504,-7.61606 5.052661,-9.03754 1.387154,-2.4829 1.029394,-3.30766 -9.09979,-20.97817 -9.103463,-15.88112 -10.393193,-18.68137 -9.441801,-20.5 C 34.537915,274.1977 41.531629,262.26071 42.818857,260.75 44.065652,259.28674 46.050528,259 54.932651,259 H 65.555326 L 76.027663,240.75 86.5,222.5 97.385235,221.82617 c 5.986875,-0.37061 11.910225,-0.28413 13.162995,0.19217 1.37404,0.52241 4.01363,3.96378 6.65296,8.67383 l 4.3752,7.80783 21.15776,0.26973 21.15776,0.26973 1.89598,2.73027 c 3.41561,4.9186 11.21211,19.41416 11.21211,20.846 0,0.77001 -2.28048,5.41092 -5.06772,10.31312 l -5.06773,8.91309 10.7661,18.67612 10.7661,18.67612 -2.83839,5.15291 c -1.56111,2.8341 -4.38296,7.74041 -6.27078,10.90291 l -3.43239,5.75 h -9.80515 c -6.62439,0 -10.14155,0.4055 -10.84215,1.25 -0.57034,0.6875 -5.14292,8.45 -10.16128,17.25 -5.01835,8.8 -10.05666,16.7875 -11.19623,17.75 -1.70527,1.4403 -4.04328,1.74729 -13.21116,1.73469 -6.12657,-0.008 -11.80435,-0.43591 -12.61729,-0.94998 z m 23.02313,-40.00224 c 11.25022,-19.78214 20.69985,-35.98214 20.99919,-36 0.29934,-0.0179 2.79014,3.90503 5.53511,8.71753 l 4.99086,8.75 10.71489,0.28383 C 180.9608,319.98716 184,319.73583 184,318.89777 c 0,-0.64344 -4.5,-9.03282 -10,-18.64307 -5.5,-9.61024 -9.99771,-17.98651 -9.99491,-18.61393 0.003,-0.62743 2.2023,-4.96577 4.88779,-9.64077 2.68548,-4.675 4.68163,-8.8375 4.43589,-9.25 C 173.08303,262.3375 154.22442,262 131.42075,262 H 89.959544 l 3.079291,-5.25 c 1.69361,-2.8875 3.9913,-7.05736 5.105979,-9.26635 l 2.026686,-4.01635 -4.889019,-8.48365 C 92.59352,230.31764 89.754768,226.5 88.974143,226.5 c -0.795114,0 -5.829287,7.79327 -11.44673,17.72037 L 67.5,261.94075 l -10.583333,0.0296 c -5.820834,0.0163 -10.84326,0.28956 -11.160948,0.60724 -0.317688,0.31769 8.779465,16.85519 20.215896,36.75 l 20.79351,36.17239 -10.288601,0.28288 -10.2886,0.28288 -5.093962,8.95924 C 58.292283,349.95259 56,354.43779 56,354.99212 56,355.63768 63.641023,356 77.255285,356 H 98.51057 l 4.99472,8.98263 c 2.74709,4.94045 5.46499,8.99045 6.03977,9 0.57478,0.01 10.24978,-16.16802 21.5,-35.95016 z M 97.339004,306.14118 85.375645,285.24565 91.334514,284.62283 C 94.611892,284.28027 105.37552,284 115.25368,284 c 13.95752,0 17.85334,0.27858 17.48039,1.25 -0.26395,0.6875 -5.64406,10.37076 -11.95581,21.51835 l -11.4759,20.26835 z"
         id="path5" />
      <path
         style="fill:#5e5e5e"
         d="m 286.87244,343.25 c -1.24387,-1.58606 -1.2085,-1.62143 0.37756,-0.37756 1.66575,1.30637 2.19548,2.12756 1.37244,2.12756 -0.20765,0 -0.99515,-0.7875 -1.75,-1.75 z m 217.20651,-3.83333 c 0.048,-1.16495 0.28494,-1.4019 0.60416,-0.60417 0.28887,0.72187 0.25335,1.58438 -0.0789,1.91667 -0.33229,0.33229 -0.56864,-0.25834 -0.52522,-1.3125 z m 46,0 c 0.048,-1.16495 0.28494,-1.4019 0.60416,-0.60417 0.28887,0.72187 0.25335,1.58438 -0.0789,1.91667 -0.33229,0.33229 -0.56864,-0.25834 -0.52522,-1.3125 z M 484,333.5 c 1.29175,-1.375 2.57363,-2.5 2.84863,-2.5 0.275,0 -0.55688,1.125 -1.84863,2.5 -1.29175,1.375 -2.57363,2.5 -2.84863,2.5 -0.275,0 0.55688,-1.125 1.84863,-2.5 z m 21.07895,-2.08333 c 0.048,-1.16495 0.28494,-1.4019 0.60416,-0.60417 0.28887,0.72187 0.25335,1.58438 -0.0789,1.91667 -0.33229,0.33229 -0.56864,-0.25834 -0.52522,-1.3125 z M 225.40499,329.75 223.5,327.5 l 2.25,1.90499 c 2.11444,1.79022 2.70524,2.59501 1.90499,2.59501 -0.18976,0 -1.20226,-1.0125 -2.25,-2.25 z M 296,331.62244 c 0,-0.20765 0.7875,-0.99515 1.75,-1.75 1.58606,-1.24387 1.62143,-1.2085 0.37756,0.37756 C 296.82119,331.91575 296,332.44548 296,331.62244 Z m 163.25,-1.31177 c 0.9625,-0.25152 2.5375,-0.25152 3.5,0 0.9625,0.25153 0.175,0.45733 -1.75,0.45733 -1.925,0 -2.7125,-0.2058 -1.75,-0.45733 z m -200.48209,-1.0354 c 1.79735,-0.22256 4.49735,-0.21797 6,0.0102 1.50265,0.22818 0.0321,0.41027 -3.26791,0.40466 -3.3,-0.006 -4.52944,-0.1923 -2.73209,-0.41486 z m 293.31104,-5.8586 c 0.048,-1.16495 0.28494,-1.4019 0.60416,-0.60417 0.28887,0.72187 0.25335,1.58438 -0.0789,1.91667 -0.33229,0.33229 -0.56864,-0.25834 -0.52522,-1.3125 z M 284.87244,319.25 c -1.24387,-1.58606 -1.2085,-1.62143 0.37756,-0.37756 1.66575,1.30637 2.19548,2.12756 1.37244,2.12756 -0.20765,0 -0.99515,-0.7875 -1.75,-1.75 z M 444.4169,313 c 0.094,-1.2878 3.50279,-1.50377 24.09629,-1.52667 l 23.98681,-0.0267 -23.68007,0.29428 c -17.65404,0.2194 -23.78599,0.6079 -24.09629,1.52667 -0.22932,0.67898 -0.36706,0.5588 -0.30674,-0.26762 z m 123.66205,-3.58333 c 0.048,-1.16495 0.28494,-1.4019 0.60416,-0.60417 0.28887,0.72187 0.25335,1.58438 -0.0789,1.91667 -0.33229,0.33229 -0.56864,-0.25834 -0.52522,-1.3125 z M 493.15789,305 c 0,-1.375 0.22698,-1.9375 0.50439,-1.25 0.27741,0.6875 0.27741,1.8125 0,2.5 -0.27741,0.6875 -0.50439,0.125 -0.50439,-1.25 z m -280.07894,-2.58333 c 0.048,-1.16495 0.28494,-1.4019 0.60416,-0.60417 0.28887,0.72187 0.25335,1.58438 -0.0789,1.91667 -0.3323,0.33229 -0.56864,-0.25834 -0.52522,-1.3125 z M 453.75,301.25601 c 4.5375,-0.18529 11.9625,-0.18529 16.5,0 4.5375,0.1853 0.825,0.3369 -8.25,0.3369 -9.075,0 -12.7875,-0.1516 -8.25,-0.3369 z M 316.19495,293.5 c 0.0204,-1.65 0.2445,-2.20394 0.49804,-1.23097 0.25354,0.97297 0.23687,2.32297 -0.0371,3 -0.27393,0.67703 -0.48137,-0.11903 -0.46099,-1.76903 z m -14.94277,-5 c 0.0111,-2.2 0.21589,-2.98225 0.45508,-1.73834 0.23919,1.24391 0.23011,3.04391 -0.0202,4 -0.25029,0.95609 -0.446,-0.0617 -0.4349,-2.26166 z m -88.17323,-2.08333 c 0.048,-1.16495 0.28494,-1.4019 0.60416,-0.60417 0.28887,0.72187 0.25335,1.58438 -0.0789,1.91667 -0.3323,0.33229 -0.56864,-0.25834 -0.52522,-1.3125 z m 250.19008,0.89034 c 0.97297,-0.25354 2.32297,-0.23687 3,0.0371 0.67703,0.27393 -0.11903,0.48137 -1.76903,0.46099 -1.65,-0.0204 -2.20394,-0.2445 -1.23097,-0.49804 z M 316.15789,284 c 0,-1.375 0.22698,-1.9375 0.50439,-1.25 0.27741,0.6875 0.27741,1.8125 0,2.5 -0.27741,0.6875 -0.50439,0.125 -0.50439,-1.25 z m 247.71455,-3.75 c -1.24387,-1.58606 -1.2085,-1.62143 0.37756,-0.37756 0.9625,0.75485 1.75,1.54235 1.75,1.75 0,0.82304 -0.82119,0.29331 -2.12756,-1.37244 z M 512.25357,279 c 0.30814,-1.13895 2.07154,-1.51997 7.32613,-1.58297 l 6.9203,-0.083 -6.47407,0.3865 c -3.56074,0.21257 -6.8575,0.92491 -7.32613,1.58296 -0.59869,0.84069 -0.73139,0.75043 -0.44623,-0.30353 z m 32.55893,-3.68311 c 0.72187,-0.28887 1.58438,-0.25335 1.91667,0.0789 0.33229,0.33229 -0.25834,0.56864 -1.3125,0.52522 -1.16495,-0.048 -1.4019,-0.28494 -0.60417,-0.60416 z m 7,0 c 0.72187,-0.28887 1.58438,-0.25335 1.91667,0.0789 0.33229,0.33229 -0.25834,0.56864 -1.3125,0.52522 -1.16495,-0.048 -1.4019,-0.28494 -0.60417,-0.60416 z M 226,258.68709 c 0,-0.1721 1.4625,-1.6346 3.25,-3.25 l 3.25,-2.93709 -2.93709,3.25 C 226.82513,258.77946 226,259.45965 226,258.68709 Z M 303.40499,253.75 301.5,251.5 l 2.25,1.90499 c 1.2375,1.04774 2.25,2.06024 2.25,2.25 0,0.80025 -0.80479,0.20945 -2.59501,-1.90499 z m -37.14124,-13.46758 c 1.52006,-0.22986 3.77006,-0.22371 5,0.0136 1.22994,0.23736 -0.0138,0.42542 -2.76375,0.41792 -2.75,-0.008 -3.75631,-0.20172 -2.23625,-0.43157 z"
         id="path4" />
      <path
         style="fill:#2e2e2e"
         d="m 289.87244,346.25 c -1.24387,-1.58606 -1.2085,-1.62143 0.37756,-0.37756 1.66575,1.30637 2.19548,2.12756 1.37244,2.12756 -0.20765,0 -0.99515,-0.7875 -1.75,-1.75 z m -35.05994,-3.93311 c 0.72187,-0.28887 1.58438,-0.25335 1.91667,0.0789 0.33229,0.33229 -0.25834,0.56864 -1.3125,0.52522 -1.16495,-0.048 -1.4019,-0.28494 -0.60417,-0.60416 z m 200,0 c 0.72187,-0.28887 1.58438,-0.25335 1.91667,0.0789 0.33229,0.33229 -0.25834,0.56864 -1.3125,0.52522 -1.16495,-0.048 -1.4019,-0.28494 -0.60417,-0.60416 z m 56.87269,-2.04272 c 4.76214,-0.27917 6.30193,-0.75505 6.69258,-2.06838 0.37366,-1.25618 0.45391,-1.17863 0.30447,0.29421 -0.17915,1.76571 -0.96314,2.00801 -6.69258,2.06839 l -6.48966,0.0684 z m 42.04251,0.004 c 1.77523,-0.22091 4.92523,-0.22454 7,-0.008 2.07476,0.21648 0.6223,0.39722 -3.2277,0.40166 -3.85,0.004 -5.54754,-0.17268 -3.7723,-0.39359 z M 300.87244,338.25 c -1.24387,-1.58606 -1.2085,-1.62143 0.37756,-0.37756 1.66575,1.30637 2.19548,2.12756 1.37244,2.12756 -0.20765,0 -0.99515,-0.7875 -1.75,-1.75 z m 263.20651,-0.83333 c 0.048,-1.16495 0.28494,-1.4019 0.60416,-0.60417 0.28887,0.72187 0.25335,1.58438 -0.0789,1.91667 -0.33229,0.33229 -0.56864,-0.25834 -0.52522,-1.3125 z M 437.87244,334.25 c -1.24387,-1.58606 -1.2085,-1.62143 0.37756,-0.37756 1.66575,1.30637 2.19548,2.12756 1.37244,2.12756 -0.20765,0 -0.99515,-0.7875 -1.75,-1.75 z m 81.20651,-3.83333 c 0.048,-1.16495 0.28494,-1.4019 0.60416,-0.60417 0.28887,0.72187 0.25335,1.58438 -0.0789,1.91667 -0.33229,0.33229 -0.56864,-0.25834 -0.52522,-1.3125 z M 485.87244,328.25 c -1.24387,-1.58606 -1.2085,-1.62143 0.37756,-0.37756 1.66575,1.30637 2.19548,2.12756 1.37244,2.12756 -0.20765,0 -0.99515,-0.7875 -1.75,-1.75 z M 300.5,327 c 0.99549,-1.1 2.03498,-2 2.30998,-2 0.275,0 -0.31449,0.9 -1.30998,2 -0.99549,1.1 -2.03498,2 -2.30998,2 -0.275,0 0.31449,-0.9 1.30998,-2 z m 148.37244,-0.75 c -1.24387,-1.58606 -1.2085,-1.62143 0.37756,-0.37756 0.9625,0.75485 1.75,1.54235 1.75,1.75 0,0.82304 -0.82119,0.29331 -2.12756,-1.37244 z M 474,325.62244 c 0,-0.20765 0.7875,-0.99515 1.75,-1.75 1.58606,-1.24387 1.62143,-1.2085 0.37756,0.37756 C 474.82119,325.91575 474,326.44548 474,325.62244 Z m 92.07895,-3.20577 c 0.048,-1.16495 0.28494,-1.4019 0.60416,-0.60417 0.28887,0.72187 0.25335,1.58438 -0.0789,1.91667 -0.33229,0.33229 -0.56864,-0.25834 -0.52522,-1.3125 z M 237.40499,320.75 235.5,318.5 l 2.25,1.90499 c 2.11444,1.79022 2.70524,2.59501 1.90499,2.59501 -0.18976,0 -1.20226,-1.0125 -2.25,-2.25 z M 289.5,318 c 0.99549,-1.1 2.03498,-2 2.30998,-2 0.275,0 -0.31449,0.9 -1.30998,2 -0.99549,1.1 -2.03498,2 -2.30998,2 -0.275,0 0.31449,-0.9 1.30998,-2 z m 217.57895,0.41667 c 0.048,-1.16495 0.28494,-1.4019 0.60416,-0.60417 0.28887,0.72187 0.25335,1.58438 -0.0789,1.91667 -0.33229,0.33229 -0.56864,-0.25834 -0.52522,-1.3125 z m 47,-8 c 0.048,-1.16495 0.28494,-1.4019 0.60416,-0.60417 0.28887,0.72187 0.25335,1.58438 -0.0789,1.91667 -0.33229,0.33229 -0.56864,-0.25834 -0.52522,-1.3125 z m -45,-7 c 0.048,-1.16495 0.28494,-1.4019 0.60416,-0.60417 0.28887,0.72187 0.25335,1.58438 -0.0789,1.91667 -0.33229,0.33229 -0.56864,-0.25834 -0.52522,-1.3125 z M 555.25218,300.5 c 0.0111,-2.2 0.21589,-2.98225 0.45508,-1.73834 0.23919,1.24391 0.23011,3.04391 -0.0202,4 -0.25029,0.95609 -0.446,-0.0617 -0.4349,-2.26166 z m -341.92404,-6 c 0.004,-3.85 0.18518,-5.30246 0.40166,-3.2277 0.21647,2.07477 0.21284,5.22477 -0.008,7 -0.22091,1.77524 -0.39803,0.0777 -0.39359,-3.7723 z m 87.75081,-1.08333 c 0.048,-1.16495 0.28494,-1.4019 0.60416,-0.60417 0.28887,0.72187 0.25335,1.58438 -0.0789,1.91667 -0.33229,0.33229 -0.56864,-0.25834 -0.52522,-1.3125 z M 449.5,293 c 0.99549,-1.1 2.03498,-2 2.30998,-2 0.275,0 -0.31449,0.9 -1.30998,2 -0.99549,1.1 -2.03498,2 -2.30998,2 -0.275,0 0.31449,-0.9 1.30998,-2 z m -133.30505,-4.5 c 0.0204,-1.65 0.2445,-2.20394 0.49804,-1.23097 0.25354,0.97297 0.23687,2.32297 -0.0371,3 -0.27393,0.67703 -0.48137,-0.11903 -0.46099,-1.76903 z m 194.884,-0.0833 c 0.048,-1.16495 0.28494,-1.4019 0.60416,-0.60417 0.28887,0.72187 0.25335,1.58438 -0.0789,1.91667 -0.33229,0.33229 -0.56864,-0.25834 -0.52522,-1.3125 z M 438,287.68709 c 0,-0.1721 1.4625,-1.6346 3.25,-3.25 l 3.25,-2.93709 -2.93709,3.25 C 438.82513,287.77946 438,288.45965 438,287.68709 Z M 485.87244,284.25 c -1.24387,-1.58606 -1.2085,-1.62143 0.37756,-0.37756 1.66575,1.30637 2.19548,2.12756 1.37244,2.12756 -0.20765,0 -0.99515,-0.7875 -1.75,-1.75 z m -184.79349,-0.83333 c 0.048,-1.16495 0.28494,-1.4019 0.60416,-0.60417 0.28887,0.72187 0.25335,1.58438 -0.0789,1.91667 -0.33229,0.33229 -0.56864,-0.25834 -0.52522,-1.3125 z m 224,-2 c 0.048,-1.16495 0.28494,-1.4019 0.60416,-0.60417 0.28887,0.72187 0.25335,1.58438 -0.0789,1.91667 -0.33229,0.33229 -0.56864,-0.25834 -0.52522,-1.3125 z M 330.5,278 l -7,-0.64683 6.69098,-0.17658 c 3.68004,-0.0971 6.9691,0.27341 7.30902,0.82341 0.33992,0.55 0.47898,0.92054 0.30902,0.82341 C 337.63906,278.72629 334.35,278.35575 330.5,278 Z m 88.5,0 -7.5,-0.63968 7.75,-0.18016 c 4.62011,-0.1074 7.75,0.2237 7.75,0.81984 0,0.55 -0.1125,0.91893 -0.25,0.81984 -0.1375,-0.0991 -3.625,-0.46801 -7.75,-0.81984 z m 44.26375,-2.71758 c 1.52006,-0.22986 3.77006,-0.22371 5,0.0136 1.22994,0.23736 -0.0138,0.42542 -2.76375,0.41792 -2.75,-0.008 -3.75631,-0.20172 -2.23625,-0.43157 z m 84.48625,0.0553 c 0.6875,-0.27741 1.8125,-0.27741 2.5,0 0.6875,0.27741 0.125,0.50439 -1.25,0.50439 -1.375,0 -1.9375,-0.22698 -1.25,-0.50439 z M 239,265.62244 c 0,-0.20765 0.7875,-0.99515 1.75,-1.75 1.58606,-1.24387 1.62143,-1.2085 0.37756,0.37756 C 239.82119,265.91575 239,266.44548 239,265.62244 Z"
         id="path3" />
      <path
         style="fill:#000000"
         d="m 289.49294,345.00347 c -5.5623,-6.68033 -4.0786,-6.39904 -18.4615,-3.50015 -18.94632,3.81866 -38.57887,-2.76133 -48.51145,-16.25895 C 215.8915,316.23675 214.59356,311.31503 214.54402,295 l -0.044,-14.5 4.20958,-8.80217 c 9.35674,-19.5648 27.39955,-30.7286 49.58964,-30.68305 24.28652,0.0498 41.90523,13.27399 46.71089,35.05995 0.71813,3.25556 1.06879,9.9218 0.8429,16.02402 -0.36447,9.846 -0.62998,10.95608 -4.59886,19.22743 -2.81996,5.87696 -6.08249,10.73912 -9.87145,14.71145 l -5.65941,5.93329 7.63836,8.93111 C 307.56274,345.81414 311,350.09568 311,350.41657 311,350.73746 307.28432,351 302.74294,351 h -8.25706 z M 270.25,328.94742 c 2.0625,-0.57279 3.75,-1.27118 3.75,-1.55198 0,-0.2808 -2.7264,-3.74715 -6.05867,-7.703 l -6.05867,-7.19244 8.29379,-0.29424 8.29378,-0.29424 4.17302,4.79424 4.17301,4.79424 3.91984,-4.23004 c 4.70781,-5.08039 8.84131,-13.20103 10.38622,-20.40474 1.46069,-6.81096 0.54081,-17.57767 -1.99075,-23.30068 -2.84196,-6.42472 -10.25039,-13.93131 -16.41781,-16.63534 -7.11099,-3.11772 -21.79117,-3.90055 -27.93965,-1.48988 -11.88005,4.65786 -21.24428,14.71357 -24.89524,26.73357 -2.83688,9.33981 -2.3536,22.16468 1.0863,28.82711 4.83428,9.3631 11.02556,14.94527 19.53397,17.61217 4.95914,1.5544 14.76175,1.72079 19.75086,0.33525 z M 335.55606,311.75 c -5.98063,-17.1875 -11.08389,-31.83435 -11.34058,-32.54855 -0.35981,-1.00109 1.09489,-1.23017 6.35038,-1 l 6.81711,0.29855 5.90884,19 c 3.24986,10.45 6.11888,19.675 6.3756,20.5 0.29526,0.94886 1.26882,-0.15342 2.64967,-3 3.24769,-6.69499 22.88534,-40.00082 23.58156,-39.99478 0.4626,0.004 6.89866,23.04422 11.83307,42.36071 0.34162,1.33732 1.79281,-0.54674 5.12247,-6.6504 2.5552,-4.68398 7.79582,-13.95618 11.64582,-20.60489 l 7,-12.08855 7.35699,-0.011 c 5.48725,-0.008 7.2307,0.30663 6.86008,1.23895 -0.27331,0.6875 -9.51836,15.34092 -20.54456,32.56316 l -20.04765,31.31316 -3.02161,-9.81316 c -1.66188,-5.39724 -4.53517,-15.08892 -6.38507,-21.53707 l -3.36347,-11.72391 -12.78931,21.47391 C 352.53127,333.33674 346.69819,343 346.603,343 c -0.0952,0 -5.06632,-14.0625 -11.04694,-31.25 z m 117.59071,30.23571 c -8.91519,-1.87728 -16.45361,-7.99575 -20.31168,-16.48571 -1.82048,-4.00611 -2.25791,-6.68961 -2.20059,-13.5 0.0901,-10.70582 2.71399,-17.94682 9.06165,-25.00695 6.71433,-7.46794 12.78118,-10.24448 23.58536,-10.79403 10.53134,-0.53568 15.59289,1.0344 21.21824,6.58181 5.31737,5.24371 7.75246,11.25025 8.29833,20.46917 l 0.45889,7.75 h -24.76015 -24.76016 l 0.51751,3.85829 c 1.2948,9.65349 6.61346,15.2174 15.22967,15.93193 5.71521,0.47395 11.7171,-1.90025 16.24164,-6.42479 l 2.4569,-2.4569 4.40881,3.61268 c 2.42485,1.98698 4.40881,3.9802 4.40881,4.42938 0,1.5775 -8.30146,8.29522 -12.60132,10.19725 -5.1209,2.26522 -15.11709,3.12969 -21.25191,1.83787 z M 479,299.7344 c 0,-3.67249 -3.39744,-8.938 -7.07727,-10.96866 -4.29452,-2.36988 -11.95039,-1.9807 -17.5129,0.89027 C 450.23906,291.80865 446,297.09719 446,300.14788 446,301.87587 447.10582,302 462.5,302 c 16.47811,0 16.5,-0.003 16.5,-2.2656 z m 26,39.45755 c 0,-0.44443 1.8,-14.2558 4,-30.69195 2.2,-16.43615 4,-30.02252 4,-30.19195 C 513,278.13862 515.89671,278 519.43713,278 h 6.43713 l -0.56797,3.5 c -0.6787,4.18234 -0.20452,4.2869 4.20135,0.92638 11.32162,-8.63543 30.037,-8.4921 36.28176,0.27786 4.32222,6.07 4.5453,10.11839 1.72446,31.29576 -1.42858,10.725 -2.8537,20.9625 -3.16693,22.75 l -0.56951,3.25 h -6.38871 c -4.44632,0 -6.38756,-0.38004 -6.38493,-1.25 0.002,-0.6875 1.14169,-9.575 2.53247,-19.75 2.5613,-18.73852 2.52598,-24.4492 -0.17672,-28.57404 -4.12013,-6.28811 -17.99698,-5.87999 -24.06068,0.70762 -4.09598,4.44987 -6.12342,11.06433 -8.23501,26.86642 -1.13917,8.525 -2.31495,16.9625 -2.61284,18.75 l -0.54163,3.25 h -6.45468 C 507.90461,340 505,339.63638 505,339.19195 Z"
         id="path2" />
    </g>
  </g>
</svg>
